<svg width="20" height="17" viewBox="0 0 20 17" fill="none" xmlns="http://www.w3.org/2000/svg">
<path d="M17.0001 8C17.0001 4.13401 13.8661 1 10.0001 1C6.13409 1 3.00009 4.13401 3.00009 8M14.0001 11.5V13.5C14.0001 13.9647 14.0001 14.197 14.0385 14.3902C14.1963 15.1836 14.8166 15.8041 15.61 15.9619C15.8031 16.0003 16.0354 16.0003 16.5001 16.0003C16.9647 16.0003 17.1971 16.0003 17.3903 15.9619C18.1836 15.8041 18.8037 15.1836 18.9615 14.3902C18.9999 14.197 19.0001 13.9647 19.0001 13.5V11.5C19.0001 11.0353 18.9999 10.8026 18.9615 10.6094C18.8037 9.81599 18.1836 9.19624 17.3903 9.03843C17.1971 9 16.9647 9 16.5001 9C16.0354 9 15.8031 9 15.61 9.03843C14.8166 9.19624 14.1963 9.81599 14.0385 10.6094C14.0001 10.8026 14.0001 11.0353 14.0001 11.5ZM6.00009 11.5V13.5C6.00009 13.9647 5.99994 14.197 5.96151 14.3902C5.8037 15.1836 5.18361 15.8041 4.39022 15.9619C4.19703 16.0003 3.96478 16.0003 3.50013 16.0003C3.03548 16.0003 2.80315 16.0003 2.60995 15.9619C1.81657 15.8041 1.19633 15.1836 1.03852 14.3902C1.00009 14.197 1.00009 13.9647 1.00009 13.5V11.5C1.00009 11.0353 1.00009 10.8026 1.03852 10.6094C1.19633 9.81599 1.81657 9.19624 2.60995 9.03843C2.80315 9 3.03548 9 3.50013 9C3.96479 9 4.19703 9 4.39022 9.03843C5.18361 9.19624 5.8037 9.81599 5.96151 10.6094C5.99994 10.8026 6.00009 11.0353 6.00009 11.5Z" stroke="#191919" stroke-width="2" stroke-linecap="round" stroke-linejoin="round"/>
</svg>
